<?xml version="1.0" encoding="iso-8859-1"?>
<!-- Generator: Adobe Illustrator 19.0.0, SVG Export Plug-In . SVG Version: 6.00 Build 0)  -->
<svg version="1.1" id="Layer_1" xmlns="http://www.w3.org/2000/svg" xmlns:xlink="http://www.w3.org/1999/xlink" x="0px" y="0px"
	 viewBox="0 0 512 512" style="enable-background:new 0 0 512 512;" xml:space="preserve">
<path style="fill:#F95428;" d="M212.924,252.174v236.411H69.402V252.174H212.924z M176.392,452.054V288.706h-70.458v163.347H176.392
	z"/>
<rect x="105.934" y="288.712" style="fill:#E6E6E6;" width="70.458" height="163.347"/>
<g>
	<path style="fill:#666666;" d="M481.873,181.972c-0.073,0.037-0.146,0.073-0.219,0.11c-25.609,11.605-56.917,6.624-77.606-14.954
		l-0.024-0.024l-0.012,0.012c-26.9,28.069-71.773,28.069-98.685,0h-0.012c-26.912,28.069-71.786,28.057-98.698,0
		c-13.468,14.028-31.405,21.042-49.355,21.042c-17.937,0-35.887-7.014-49.343-21.055l-0.012,0.012
		c-19.898,20.75-49.623,26.157-74.635,16.22c-1.754-0.706-3.763-1.766-5.857-3.02c-0.852-0.511-1.68-1.059-2.46-1.644v309.914
		h44.447V252.174h143.522v236.411H487V178.988C485.417,180.133,483.7,181.132,481.873,181.972z M446.73,434.579H264.337V252.174
		H446.73V434.579z"/>
	<polygon style="fill:#666666;" points="487,23.41 487,79.426 404.011,79.426 305.314,79.426 206.616,79.426 107.919,79.426 
		24.954,79.426 24.954,23.41 	"/>
</g>
<g>
	<path style="fill:#4D4D4D;" d="M404.011,167.103h0.012l-0.012,0.012c-26.9,28.069-71.773,28.069-98.685,0h-0.012v-0.012V79.426
		h98.698V167.103z"/>
	<path style="fill:#4D4D4D;" d="M206.616,167.103v0.012c-13.468,14.028-31.405,21.042-49.355,21.042
		c-17.937,0-35.887-7.014-49.343-21.055V79.426h98.698V167.103z"/>
</g>
<g>
	<path style="fill:#F95428;" d="M499.324,148.131c2.143,11.946-2.764,23.965-12.323,30.857c-1.583,1.145-3.3,2.143-5.127,2.983
		c-0.073,0.037-0.146,0.073-0.219,0.11c-25.609,11.605-56.917,6.624-77.606-14.954l-0.024-0.024h-0.012V79.426H487L499.324,148.131z
		"/>
	<path style="fill:#F95428;" d="M305.314,167.103v0.012c-26.912,28.069-71.786,28.057-98.698,0v-0.012V79.426h98.698V167.103z"/>
	<path style="fill:#F95428;" d="M107.919,79.426v87.677l-0.012,0.012c-19.898,20.75-49.623,26.157-74.635,16.22
		c-1.754-0.706-3.763-1.766-5.857-3.02c-0.852-0.511-1.68-1.059-2.46-1.644c-9.559-7.026-14.43-18.924-12.299-30.772l12.299-68.473
		C24.954,79.426,107.919,79.426,107.919,79.426z"/>
</g>
<path style="fill:#4D4D4D;" d="M487,178.988v31.052c-1.583,1.145-3.3,2.143-5.127,2.983c-0.073,0.037-0.146,0.073-0.219,0.11
	c-25.609,11.605-56.917,6.624-77.606-14.954l-0.024-0.024l-0.012,0.012c-26.9,28.069-71.773,28.069-98.685,0h-0.012
	c-26.912,28.069-71.786,28.057-98.698,0c-13.468,14.028-31.405,21.042-49.355,21.042c-17.937,0-35.887-7.014-49.343-21.055
	l-0.012,0.012c-19.898,20.75-49.623,26.157-74.635,16.22c-1.754-0.706-3.763-1.766-5.857-3.02c-0.852-0.511-1.68-1.059-2.46-1.644
	v-31.052c0.779,0.585,1.607,1.132,2.46,1.644c2.095,1.254,4.104,2.314,5.857,3.02c25.012,9.937,54.737,4.53,74.635-16.22
	l0.012-0.012c13.456,14.041,31.405,21.055,49.343,21.055c17.949,0,35.887-7.014,49.355-21.042c26.912,28.057,71.786,28.069,98.698,0
	h0.012c26.912,28.069,71.786,28.069,98.685,0l0.012-0.012l0.024,0.024c20.689,21.578,51.997,26.559,77.606,14.954
	c0.073-0.037,0.146-0.073,0.219-0.11C483.7,181.132,485.417,180.133,487,178.988z"/>
<rect x="264.334" y="252.18" style="fill:#E6E6E6;" width="182.393" height="182.405"/>
<g>
	<path style="fill:#FFFFFF;" d="M264.337,391.168c-3.225,0-6.442-1.273-8.836-3.797c-4.629-4.879-4.425-12.587,0.454-17.215
		l27.338-25.932c4.879-4.629,12.587-4.425,17.215,0.454c4.629,4.879,4.425,12.587-0.454,17.216l-27.338,25.932
		C270.361,390.06,267.346,391.168,264.337,391.168z"/>
	<path style="fill:#FFFFFF;" d="M323.574,334.977c-3.225,0-6.443-1.273-8.837-3.797c-4.629-4.879-4.425-12.587,0.455-17.216
		l74.448-70.62c4.878-4.627,12.587-4.425,17.215,0.455c4.629,4.879,4.425,12.587-0.454,17.215l-74.448,70.619
		C329.598,333.869,326.583,334.977,323.574,334.977z"/>
	<path style="fill:#FFFFFF;" d="M283.688,446.758c-3.223,0-6.442-1.273-8.836-3.797c-4.629-4.878-4.425-12.587,0.454-17.215
		l94.126-89.297c4.878-4.629,12.585-4.426,17.215,0.454c4.629,4.878,4.425,12.587-0.454,17.215l-94.126,89.297
		C289.712,445.648,286.698,446.758,283.688,446.758z"/>
	<path style="fill:#FFFFFF;" d="M105.935,381.765c-3.223,0-6.442-1.273-8.836-3.796c-4.629-4.878-4.426-12.587,0.452-17.216
		l70.458-66.854c4.879-4.627,12.587-4.426,17.216,0.452c4.629,4.879,4.426,12.587-0.452,17.216l-70.458,66.854
		C111.959,380.656,108.945,381.765,105.935,381.765z"/>
	<path style="fill:#FFFFFF;" d="M105.935,438.778c-3.223,0-6.442-1.273-8.836-3.796c-4.629-4.878-4.426-12.587,0.452-17.216
		l70.458-66.854c4.879-4.627,12.587-4.425,17.216,0.452c4.629,4.879,4.426,12.587-0.452,17.216l-70.458,66.854
		C111.959,437.669,108.945,438.778,105.935,438.778z"/>
	<path style="fill:#FFFFFF;" d="M412.818,324.253c-3.223,0-6.442-1.273-8.836-3.797c-4.629-4.878-4.425-12.587,0.454-17.215
		l33.914-32.174c4.878-4.629,12.585-4.426,17.215,0.454c4.629,4.878,4.425,12.587-0.454,17.215l-33.914,32.174
		C418.842,323.145,415.827,324.253,412.818,324.253z"/>
</g>
<circle style="fill:#808080;" cx="451.452" cy="50.892" r="12.177"/>
<g>
	<path style="fill:#333333;" d="M511.306,145.982l-12.134-67.637V23.411c0-6.726-5.452-12.177-12.177-12.177H24.96
		c-6.726,0-12.177,5.452-12.177,12.177v54.932L0.674,145.75c-2.538,14.125,2.224,28.499,12.102,38.429v304.409
		c0,6.726,5.452,12.177,12.177,12.177h462.046c6.726,0,12.177-5.452,12.177-12.177V184.586
		C509.084,174.787,513.899,160.437,511.306,145.982z M33.676,169.875c-6.799-4.076-10.427-12.041-9.031-19.819l10.501-58.451h60.592
		v70.321c-15.814,13.994-38.073,17.997-57.972,10.09C37.191,171.787,35.896,171.205,33.676,169.875z M120.092,91.605h74.343v70.307
		c-10.261,9.095-23.286,14.067-37.169,14.067c-13.885,0-26.911-4.972-37.173-14.069V91.605H120.092z M218.789,91.605h74.343v70.313
		c-10.261,9.094-23.286,14.066-37.168,14.066c-13.886,0-26.912-4.973-37.175-14.072V91.605z M317.487,91.605h74.351v70.316
		c-10.261,9.094-23.284,14.065-37.168,14.065c-13.89,0-26.919-4.976-37.184-14.079V91.605z M416.194,91.605h60.614l10.526,58.678
		c1.542,8.595-2.787,17.074-10.62,20.661l-0.096,0.044c-20.233,9.176-43.912,5.477-60.425-9.081V91.605H416.194z M37.138,35.589
		h437.68V67.25H37.138V35.589z M81.574,476.41V264.358h119.173V476.41H81.574z M225.101,476.41V252.18
		c0-6.726-5.452-12.177-12.177-12.177H69.397c-6.726,0-12.177,5.452-12.177,12.177V476.41H37.132V197.442
		c7.11,1.972,14.349,2.955,21.533,2.955c17.668,0,35.001-5.843,49.245-16.929c14.039,10.945,31.191,16.866,49.356,16.866
		c18.16,0,35.308-5.919,49.345-16.861c14.039,10.945,31.189,16.866,49.352,16.866s35.313-5.919,49.352-16.864
		c14.039,10.946,31.19,16.867,49.355,16.867c18.171,0,35.328-5.926,49.369-16.879c20.042,15.527,46.368,20.71,70.781,13.986v278.963
		h-249.72V476.41z"/>
	<path style="fill:#333333;" d="M176.392,276.535h-70.463c-6.726,0-12.177,5.452-12.177,12.177v163.342
		c0,6.726,5.452,12.177,12.177,12.177h70.463c6.726,0,12.177-5.452,12.177-12.177V288.712
		C188.569,281.987,183.117,276.535,176.392,276.535z M164.215,439.878h-46.108V300.89h46.108L164.215,439.878L164.215,439.878z"/>
	<path style="fill:#333333;" d="M446.73,240.003H264.336c-6.726,0-12.177,5.452-12.177,12.177v182.394
		c0,6.726,5.452,12.177,12.177,12.177h19.233c0.04,0,0.08,0.006,0.121,0.006c0.043,0,0.086-0.006,0.129-0.006h162.913
		c6.726,0,12.177-5.452,12.177-12.177V252.18C458.907,245.455,453.455,240.003,446.73,240.003z M278.835,422.397h-2.323V264.358
		h158.039v158.039H278.835z"/>
</g>
<g>
</g>
<g>
</g>
<g>
</g>
<g>
</g>
<g>
</g>
<g>
</g>
<g>
</g>
<g>
</g>
<g>
</g>
<g>
</g>
<g>
</g>
<g>
</g>
<g>
</g>
<g>
</g>
<g>
</g>
</svg>
